<svg xmlns="http://www.w3.org/2000/svg" data-name="Layer 1" viewBox="0 0 96 120" x="0px" y="0px" >
    <path 
        fill="white"
        d="M72.15234,2H23.84766A21.87235,21.87235,0,0,0,2,23.84766V72.15234A21.87235,21.87235,0,0,0,23.84766,94H72.15234A21.87235,21.87235,0,0,0,94,72.15234V23.84766A21.87235,21.87235,0,0,0,72.15234,2ZM48,8A18,18,0,1,1,30,26,18.02031,18.02031,0,0,1,48,8ZM76,86a2.0001,2.0001,0,0,1-2,2H22a2.0001,2.0001,0,0,1-2-2V76a28,28,0,0,1,56,0Z"/>
    <path 
        fill="white"
        d="M66,74H30a2,2,0,0,0,0,4H66a2,2,0,0,0,0-4Z"/>
</svg>