<svg 
    xmlns="http://www.w3.org/2000/svg" 
    xmlns:xlink="http://www.w3.org/1999/xlink" 
    version="1.1" 
    x="0px" 
    y="0px" 
    viewBox="0 0 90 112.5" 
    style="transform: translateY(7.5%); enable-background:new 0 0 90 90;" 
    xml:space="preserve">
    <polygon fill="white" points="81.7,64.9 79.4,67.3 68.5,56.4 77.5,47.3 71.8,41.6 46,67.4 51.7,73.1 60.8,64.1 71.7,75 69.3,77.4 74.9,83.1   87.5,70.5 "/>
    <rect fill="white" x="46" y="54.9" transform="matrix(0.7071 -0.7071 0.7071 0.7071 -24.8279 52.7521)" width="10.5" height="2.9"/>
    <rect fill="white" x="55.5" y="45.4" transform="matrix(0.7071 -0.7071 0.7071 0.7071 -15.3272 56.6611)" width="10.5" height="2.9"/>
    <polygon fill="white" points="26.6,39.1 34,31.7 30.2,27.9 32.3,25.9 36.1,29.6 43.5,22.2 31.2,9.9 13.5,9.1 14.3,26.8 "/>
    <polygon fill="white" points="12.5,47.3 21.5,56.4 10.6,67.3 8.3,64.9 2.5,70.5 15.1,83.1 20.7,77.4 18.3,75 29.2,64.1 38.3,73.1 44,67.4   18.2,41.6 "/>
    <polygon fill="white" points="54.5,48 61.9,40.6 75.7,26.8 76.5,9.1 58.8,9.9 45,23.7 37.6,31.1 35.5,33.2 28.1,40.6 24.5,44.2 32,51.6 35.5,48   
                     43,40.6 45,38.6 52.4,31.1 57.7,25.9 59.8,27.9 54.5,33.2 47,40.6 45,42.6 37.6,50.1 34,53.6 41.4,61.1 45,57.5 52.4,50.1 "/>
</svg>