<svg xmlns="http://www.w3.org/2000/svg" xmlns:xlink="http://www.w3.org/1999/xlink" version="1.1" x="0px" y="0px" viewBox="0 0 91 113.75" enable-background="new 0 0 91 91" xml:space="preserve"><g><path d="M17.644,89.59c0.361,0.181,0.745,0.264,1.123,0.264c0.928,0,1.818-0.51,2.259-1.396c2.367-4.749,6.167-8.74,10.768-11.392   c2,1.107,4.164,1.98,6.456,2.575c0.211,0.057,0.425,0.083,0.636,0.083c1.121,0,2.143-0.753,2.438-1.89   c0.351-1.348-0.46-2.725-1.806-3.074c-10.02-2.604-17.018-11.661-17.018-22.026c0-12.548,10.207-22.757,22.755-22.757   c12.55,0,22.762,10.208,22.762,22.757c0,7.846-4.047,15.063-10.539,19.2c-0.035,0.019-0.068,0.043-0.104,0.063   c-0.912,0.575-1.871,1.092-2.876,1.538c-1.272,0.565-1.846,2.057-1.279,3.329c0.564,1.271,2.054,1.847,3.328,1.279   c0.741-0.329,1.455-0.697,2.154-1.084c4.939,2.837,8.917,7.179,11.257,12.384c0.421,0.937,1.339,1.49,2.302,1.49   c0.345,0,0.696-0.072,1.032-0.223c1.268-0.571,1.837-2.063,1.266-3.333c-2.449-5.451-6.416-10.097-11.337-13.433   c6.134-5.203,9.838-12.92,9.838-21.212c0-15.329-12.471-27.799-27.804-27.799c-15.327,0-27.799,12.47-27.799,27.799   c0,8.382,3.762,16.047,9.846,21.205c-4.562,3.095-8.329,7.334-10.79,12.27C15.891,87.453,16.398,88.968,17.644,89.59z"/><path d="M33.742,59.912c1.578,1.238,4.594,2.69,8.163,2.69c2.463,0,5.188-0.691,7.884-2.624c1.131-0.813,1.391-2.389,0.579-3.52   c-0.813-1.131-2.387-1.39-3.521-0.578c-5.036,3.614-9.499,0.435-10.002,0.055c-1.096-0.849-2.672-0.655-3.527,0.435   C32.458,57.467,32.646,59.052,33.742,59.912z"/><path d="M37.821,46.982c0-1.635-1.33-2.967-2.965-2.967c-1.635,0-2.965,1.332-2.965,2.967c0,1.636,1.33,2.966,2.965,2.966   C36.492,49.948,37.821,48.618,37.821,46.982z"/><path d="M51.729,46.982c0-1.635-1.329-2.967-2.965-2.967c-1.637,0-2.969,1.332-2.969,2.967c0,1.636,1.332,2.966,2.969,2.966   C50.4,49.948,51.729,48.618,51.729,46.982z"/><path d="M29.812,16.147c0.427,0.918,1.338,1.459,2.289,1.459c0.357,0,0.718-0.076,1.061-0.236c1.264-0.586,1.81-2.086,1.225-3.349   L31.122,7c-0.587-1.263-2.093-1.81-3.349-1.224c-1.264,0.587-1.81,2.086-1.225,3.35L29.812,16.147z"/><path d="M32.322,21.184c0,0.656,0.269,1.311,0.741,1.782c0.47,0.471,1.126,0.74,1.781,0.74s1.312-0.27,1.783-0.74   c0.468-0.471,0.739-1.126,0.739-1.782c0-0.672-0.271-1.311-0.739-1.782c-0.944-0.941-2.625-0.941-3.564,0   C32.591,19.874,32.322,20.512,32.322,21.184z"/><path d="M44.392,18.663c-0.47,0.47-0.739,1.126-0.739,1.782s0.269,1.311,0.739,1.782c0.47,0.471,1.108,0.739,1.782,0.739   c0.656,0,1.313-0.269,1.781-0.739c0.472-0.471,0.74-1.126,0.74-1.782s-0.269-1.312-0.74-1.782   C47.015,17.721,45.317,17.721,44.392,18.663z"/><path d="M44.605,9.582c1.381-0.178,2.356-1.442,2.177-2.823c-0.086-0.679,0.025-1.126,0.333-1.329   c0.413-0.275,1.263-0.31,1.955,0.102c0.604,0.356,0.867,0.917,0.803,1.712c-0.075,0.93-0.548,1.325-1.984,2.305   c-1.274,0.869-2.86,1.95-3.652,3.978c-0.507,1.297,0.133,2.76,1.43,3.266c0.301,0.119,0.614,0.174,0.917,0.174   c1.009,0,1.962-0.609,2.35-1.604c0.213-0.548,0.822-0.983,1.795-1.648c1.552-1.057,3.897-2.655,4.171-6.067   c0.217-2.708-1.002-5.122-3.259-6.457c-2.289-1.352-5.221-1.342-7.3,0.027c-1.966,1.295-2.898,3.549-2.559,6.185   C41.958,8.784,43.231,9.758,44.605,9.582z"/><path d="M59.05,19.007c0.449,0.33,0.971,0.489,1.489,0.489c0.776,0,1.541-0.356,2.034-1.029l4.925-6.708   c0.825-1.123,0.583-2.701-0.539-3.525c-1.121-0.822-2.7-0.583-3.523,0.54l-4.926,6.708C57.685,16.606,57.928,18.183,59.05,19.007z"/></g><text x="0" y="106" fill="#000000" font-size="5px" font-weight="bold" font-family="'Helvetica Neue', Helvetica, Arial-Unicode, Arial, Sans-serif">Created by BomSymbols</text><text x="0" y="111" fill="#000000" font-size="5px" font-weight="bold" font-family="'Helvetica Neue', Helvetica, Arial-Unicode, Arial, Sans-serif">from the Noun Project</text></svg>