<svg xmlns="http://www.w3.org/2000/svg" xmlns:xlink="http://www.w3.org/1999/xlink" version="1.1" x="0px" y="0px" viewBox="0 0 130 162.5" style="enable-background:new 0 0 130 130;" xml:space="preserve"><g><path d="M126.2900391,74.75C128.3706055,74.5908203,130,72.8320313,130,70.7451172V59.2548828   c0-2.0869141-1.6293945-3.8457031-3.7099609-4.0048828l-10.9731445-0.8398438   c-1.3110352-6.2695313-3.7456055-12.1523438-7.2460938-17.5058594l7.1616211-8.3486328   c1.3588867-1.5830078,1.2675781-3.9794922-0.2080078-5.4550781l-8.1254883-8.125   c-1.4750977-1.4775391-3.871582-1.5683594-5.4541016-0.2089844l-8.3491211,7.1621094   c-5.3535156-3.5-11.2358398-5.9345703-17.5058594-7.2460938l-0.840332-10.9726563C74.5908203,1.6298828,72.831543,0,70.7451172,0   H59.2543945C57.1679688,0,55.4086914,1.6298828,55.25,3.7099609l-0.840332,10.9726563   c-6.2700195,1.3115234-12.1523438,3.7460938-17.5058594,7.2460938l-8.3486328-7.1621094   c-1.5825195-1.3583984-3.9799805-1.2675781-5.4545898,0.2089844l-8.1254883,8.125   C13.5,24.5761719,13.4086914,26.9726563,14.7670898,28.5556641l7.1616211,8.3486328   c-3.5,5.3525391-5.9345703,11.2353516-7.2456055,17.5058594L3.7094727,55.25C1.6293945,55.4091797,0,57.1679688,0,59.2548828   v11.4902344C0,72.8320313,1.6293945,74.5908203,3.7094727,74.75l10.9736328,0.8398438   c1.3110352,6.2705078,3.7456055,12.1533203,7.2456055,17.5048828l-7.1616211,8.3496094   c-1.3583984,1.5830078-1.2670898,3.9794922,0.2080078,5.4550781l8.1254883,8.125   c1.4760742,1.4755859,3.8725586,1.5673828,5.4545898,0.2080078l8.3486328-7.1611328   c5.3530273,3.5,11.2358398,5.9345703,17.5058594,7.2460938L55.25,126.2900391   C55.4086914,128.3701172,57.1679688,130,59.2543945,130h11.4907227c2.0864258,0,3.8457031-1.6298828,4.0043945-3.7099609   l0.840332-10.9726563c6.2700195-1.3115234,12.152832-3.7460938,17.5058594-7.2460938l8.3486328,7.1611328   c1.5834961,1.3583984,3.9790039,1.2675781,5.4545898-0.2080078l8.1254883-8.125   c1.4755859-1.4755859,1.5668945-3.8720703,0.2084961-5.4550781l-7.1621094-8.3496094   c3.5004883-5.3525391,5.9350586-11.2353516,7.2460938-17.5048828L126.2900391,74.75z M113.5039063,74.4599609   c-1.2666016,6.5361328-3.7949219,12.6435547-7.5131836,18.1523438c-0.2519531,0.3730469-0.2236328,0.8691406,0.0698242,1.2109375   l7.6542969,8.9238281c0.6821289,0.7949219,0.6362305,1.9970703-0.1044922,2.7382813l-8.1254883,8.125   c-0.7402344,0.7412109-1.9433594,0.7851563-2.7382813,0.1044922l-8.9233398-7.6542969   c-0.3413086-0.2939453-0.8374023-0.3212891-1.2104492-0.0703125c-5.5087891,3.71875-11.6162109,6.2470703-18.152832,7.5146484   c-0.4418945,0.0849609-0.7724609,0.4560547-0.8066406,0.9052734l-0.8979492,11.7275391   C72.6757813,127.1816406,71.7924805,128,70.7451172,128H59.2543945c-1.0473633,0-1.9306641-0.8183594-2.0102539-1.8623047   l-0.8979492-11.7275391c-0.0341797-0.4492188-0.3647461-0.8203125-0.8066406-0.9052734   c-6.5366211-1.2675781-12.644043-3.7958984-18.152832-7.5146484c-0.1699219-0.1142578-0.3647461-0.1708984-0.5595703-0.1708984   c-0.2329102,0-0.4648438,0.0810547-0.6508789,0.2412109l-8.9228516,7.6542969   c-0.7944336,0.6806641-1.9980469,0.6367188-2.7387695-0.1044922l-8.1254883-8.125   c-0.7402344-0.7412109-0.7861328-1.9433594-0.1044922-2.7382813l7.6547852-8.9238281   c0.2929688-0.3417969,0.3212891-0.8378906,0.0693359-1.2109375c-3.7177734-5.5078125-6.2456055-11.6152344-7.5131836-18.1523438   c-0.0859375-0.4423828-0.456543-0.7724609-0.9057617-0.8066406L3.8618164,72.7558594   C2.8178711,72.6757813,2,71.7929688,2,70.7451172V59.2548828c0-1.0478516,0.8178711-1.9306641,1.8618164-2.0107422   l11.7280273-0.8974609c0.4492188-0.0341797,0.8198242-0.3642578,0.9057617-0.8066406   c1.2670898-6.5371094,3.7954102-12.6445313,7.5136719-18.1533203c0.2514648-0.3730469,0.2231445-0.8691406-0.0703125-1.2109375   l-7.6542969-8.9228516c-0.6816406-0.7949219-0.6357422-1.9970703,0.1044922-2.7382813l8.1254883-8.125   c0.7407227-0.7412109,1.9438477-0.7861328,2.7382813-0.1054688l8.9228516,7.6552734   c0.3422852,0.2949219,0.8378906,0.3212891,1.2109375,0.0703125c5.5087891-3.71875,11.6162109-6.2470703,18.152832-7.5146484   c0.4418945-0.0849609,0.7724609-0.4560547,0.8066406-0.9052734l0.8979492-11.7275391   C57.3237305,2.8183594,58.2070313,2,59.2543945,2h11.4907227c1.0473633,0,1.9306641,0.8183594,2.0102539,1.8623047   l0.8979492,11.7275391c0.0341797,0.4492188,0.3647461,0.8203125,0.8066406,0.9052734   c6.5366211,1.2675781,12.644043,3.7958984,18.152832,7.5146484c0.3725586,0.25,0.8681641,0.2236328,1.2109375-0.0703125   l8.9233398-7.6552734c0.7939453-0.6816406,1.9970703-0.6347656,2.737793,0.1054688l8.1254883,8.125   c0.7407227,0.7412109,0.7866211,1.9433594,0.1044922,2.7382813l-7.6542969,8.9228516   c-0.293457,0.3417969-0.3217773,0.8378906-0.0703125,1.2109375c3.7192383,5.5097656,6.2470703,11.6171875,7.5136719,18.1533203   c0.0859375,0.4423828,0.456543,0.7724609,0.9057617,0.8066406l11.7280273,0.8974609   C127.1821289,57.3242188,128,58.2070313,128,59.2548828v11.4902344c0,1.0478516-0.8178711,1.9306641-1.8623047,2.0107422   l-11.7280273,0.8974609C113.9604492,73.6875,113.5898438,74.0175781,113.5039063,74.4599609z"/><path d="M65,26.9970703c-20.9545898,0-38.0024414,17.0478516-38.0024414,38.0029297   c0,20.9541016,17.0478516,38.0019531,38.0024414,38.0019531S103.0019531,85.9541016,103.0019531,65   C103.0019531,44.0449219,85.9545898,26.9970703,65,26.9970703z M65,101.0019531   c-19.8520508,0-36.0024414-16.1503906-36.0024414-36.0019531c0-19.8525391,16.1503906-36.0029297,36.0024414-36.0029297   c19.8515625,0,36.0019531,16.1503906,36.0019531,36.0029297C101.0019531,84.8515625,84.8515625,101.0019531,65,101.0019531z"/><path d="M66.637207,41.0927734c-4.1625977-0.4638672-8.1591797,0.8134766-11.2519531,3.5839844   c-3.0512695,2.7333984-4.8012695,6.6484375-4.8012695,10.7412109c0,0.5527344,0.4477539,1,1,1s1-0.4472656,1-1   c0-3.5253906,1.5073242-6.8974609,4.1352539-9.2509766c2.6645508-2.3867188,6.109375-3.4892578,9.6982422-3.0859375   C72.1152344,43.7099609,76.7075195,48.3027344,77.3369141,54c0.5283203,4.7851563-1.65625,9.3496094-5.7006836,11.9130859   C66.8544922,68.9433594,64,73.9775391,64,79.3789063v0.765625c0,0.5527344,0.4477539,1,1,1s1-0.4472656,1-1v-0.765625   c0-4.7119141,2.5073242-9.1142578,6.706543-11.7763672c4.6953125-2.9755859,7.2314453-8.2714844,6.6186523-13.8212891   C78.5932617,47.1601563,73.2573242,41.8242188,66.637207,41.0927734z"/><path d="M65,84.3339844c-0.5522461,0-1,0.4472656-1,1v2.6630859c0,0.5527344,0.4477539,1,1,1s1-0.4472656,1-1v-2.6630859   C66,84.78125,65.5522461,84.3339844,65,84.3339844z"/></g><text x="0" y="145" fill="#000000" font-size="5px" font-weight="bold" font-family="'Helvetica Neue', Helvetica, Arial-Unicode, Arial, Sans-serif">Created by Graphic Tigers</text><text x="0" y="150" fill="#000000" font-size="5px" font-weight="bold" font-family="'Helvetica Neue', Helvetica, Arial-Unicode, Arial, Sans-serif">from the Noun Project</text></svg>