<svg xmlns:dc="http://purl.org/dc/elements/1.1/" xmlns:cc="http://creativecommons.org/ns#" xmlns:rdf="http://www.w3.org/1999/02/22-rdf-syntax-ns#" xmlns:svg="http://www.w3.org/2000/svg" xmlns="http://www.w3.org/2000/svg" xmlns:sodipodi="http://sodipodi.sourceforge.net/DTD/sodipodi-0.dtd" xmlns:inkscape="http://www.inkscape.org/namespaces/inkscape" version="1.1" x="0px" y="0px" viewBox="0 0 100 125">
    <g transform="translate(0,-952.36218)">
        <path style="transform: translateY(7.5%);
        text-indent:0;text-transform:none;direction:ltr;block-progression:tb;baseline-shift:baseline;color:#000000;enable-background:accumulate;" 
              d="m 6,955.36217 a 3.0003,3.0003 0 0 0 -3,3 l 0,22 a 3.0003,3.0003 0 0 0 3,3 l 22,0 a 3.0003,3.0003 0 0 0 3,-3 l 0,-22 a 3.0003,3.0003 0 0 0 -3,-3 l -22,0 z m 33,0 a 3.0003,3.0003 0 0 0 -3,3 l 0,22 a 3.0003,3.0003 0 0 0 3,3 l 22,0 a 3.0003,3.0003 0 0 0 3,-3 l 0,-22 a 3.0003,3.0003 0 0 0 -3,-3 l -22,0 z m 33,0 a 3.0003,3.0003 0 0 0 -3,3 l 0,22 a 3.0003,3.0003 0 0 0 3,3 l 22,0 a 3.0003,3.0003 0 0 0 3,-3 l 0,-22 a 3.0003,3.0003 0 0 0 -3,-3 l -22,0 z m -63,6 16,0 0,16 -16,0 0,-16 z m 33,0 16,0 0,16 -16,0 0,-16 z m 33,0 16,0 0,16 -16,0 0,-16 z m -69,27 a 3.0003,3.0003 0 0 0 -3,3 l 0,22.00003 a 3.0003,3.0003 0 0 0 3,3 l 22,0 a 3.0003,3.0003 0 0 0 3,-3 l 0,-22.00003 a 3.0003,3.0003 0 0 0 -3,-3 l -22,0 z m 33,0 a 3.0003,3.0003 0 0 0 -3,3 l 0,22.00003 a 3.0003,3.0003 0 0 0 3,3 l 22,0 a 3.0003,3.0003 0 0 0 3,-3 l 0,-22.00003 a 3.0003,3.0003 0 0 0 -3,-3 l -22,0 z m 33,0 a 3.0003,3.0003 0 0 0 -3,3 l 0,22.00003 a 3.0003,3.0003 0 0 0 3,3 l 22,0 a 3.0003,3.0003 0 0 0 3,-3 l 0,-22.00003 a 3.0003,3.0003 0 0 0 -3,-3 l -22,0 z m -63,6 16,0 0,16.00003 -16,0 0,-16.00003 z m 33,0 16,0 0,16.00003 -16,0 0,-16.00003 z m 33,0 16,0 0,16.00003 -16,0 0,-16.00003 z M 6,1021.3622 a 3.0003,3.0003 0 0 0 -3,3 l 0,22 a 3.0003,3.0003 0 0 0 3,3 l 22,0 a 3.0003,3.0003 0 0 0 3,-3 l 0,-22 a 3.0003,3.0003 0 0 0 -3,-3 l -22,0 z m 33,0 a 3.0003,3.0003 0 0 0 -3,3 l 0,22 a 3.0003,3.0003 0 0 0 3,3 l 22,0 a 3.0003,3.0003 0 0 0 3,-3 l 0,-22 a 3.0003,3.0003 0 0 0 -3,-3 l -22,0 z m 33,0 a 3.0003,3.0003 0 0 0 -3,3 l 0,22 a 3.0003,3.0003 0 0 0 3,3 l 22,0 a 3.0003,3.0003 0 0 0 3,-3 l 0,-22 a 3.0003,3.0003 0 0 0 -3,-3 l -22,0 z m -63,6 16,0 0,16 -16,0 0,-16 z m 33,0 16,0 0,16 -16,0 0,-16 z m 33,0 16,0 0,16 -16,0 0,-16 z" fill="white" fill-opacity="1" stroke="none" marker="none" visibility="visible" display="inline" overflow="visible"/></g></svg>