<svg xmlns="http://www.w3.org/2000/svg" xmlns:xlink="http://www.w3.org/1999/xlink" version="1.1" x="0px" y="0px" viewBox="0 0 100 125" enable-background="new 0 0 100 100" xml:space="preserve">
    <path fill="white" d="M95.833,60.332V39.668l-10.349-1.133c-0.617-1.909-1.386-3.749-2.287-5.51l6.518-8.128L75.104,10.285l-8.124,6.521  
    c-1.765-0.905-3.608-1.675-5.522-2.293L60.332,4.167H39.668l-1.121,10.345c-1.918,0.619-3.766,1.391-5.535,2.298l-8.115-6.524  
    L10.285,24.897l6.526,8.112c-0.907,1.769-1.68,3.616-2.299,5.535L4.167,39.668v20.664l10.345,1.12  
    c0.618,1.918,1.391,3.767,2.298,5.535l-6.524,8.116l14.611,14.612l8.112-6.526c1.765,0.905,3.608,1.676,5.522,2.294l1.137,10.35  
    h20.664l1.133-10.349c1.91-0.617,3.75-1.386,5.511-2.288l8.128,6.519l14.611-14.612l-6.521-8.124c0.903-1.761,1.672-3.6,2.288-5.51  
    L95.833,60.332z M50,76.25c-14.497,0-26.25-11.752-26.25-26.25S35.503,23.75,50,23.75S76.25,35.502,76.25,50S64.497,76.25,50,76.25z   
    M50,32.131c-9.868,0-17.869,8-17.869,17.869S40.132,67.869,50,67.869s17.869-8,17.869-17.869S59.868,32.131,50,32.131z"/>
</svg>