<svg xmlns="http://www.w3.org/2000/svg" xmlns:xlink="http://www.w3.org/1999/xlink" version="1.1" x="0px" y="0px" viewBox="0 0 100 125" enable-background="new 0 0 100 100" xml:space="preserve">
    <path 
            fill="white"
            d="M81.199,19.78c-16.379-16.375-43.023-16.373-59.398,0C13.867,27.712,9.5,38.259,9.5,49.479  
             c0,11.22,4.369,21.767,12.301,29.696c0.811,0.813,1.66,1.582,2.531,2.324H11.5v4h20v-20h-4v13.414  
             c-0.992-0.813-1.961-1.656-2.871-2.566C17.453,69.172,13.5,59.629,13.5,49.478c0-10.15,3.953-19.693,11.129-26.869  
             c14.816-14.813,38.922-14.816,53.742,0c14.814,14.816,14.814,38.923,0,53.739c-8.535,8.535-20.291,12.453-32.25,10.75l-0.563,3.961  
             c2.027,0.289,4.051,0.43,6.055,0.43c11.066,0,21.602-4.328,29.586-12.313C97.574,62.801,97.574,36.157,81.199,19.78z"/>
</svg>