<svg xmlns="http://www.w3.org/2000/svg" xmlns:xlink="http://www.w3.org/1999/xlink" version="1.1" x="0px" y="0px" viewBox="0 0 58 75" enable-background="new 0 0 58 60" xml:space="preserve">
    <g>
        <path fill="white" d="M45.02,0H2.98L24,27.65L45.02,0z M40.98,2L24,24.35L7.02,2H40.98z"/>
        <path fill="white" d="M2.98,60h42.03L24,32.35L2.98,60z M7.02,58L24,35.65L40.98,58H7.02z"/>
        <path fill="white" d="M26,29c-0.55,0-1,0.45-1,1s0.45,1,1,1h1c0.55,0,1-0.45,1-1s-0.45-1-1-1H26z"/>
        <path fill="white" d="M36,29c-0.55,0-1,0.45-1,1s0.45,1,1,1h1c0.55,0,1-0.45,1-1s-0.45-1-1-1H36z"/>
        <path fill="white" d="M41,29c-0.55,0-1,0.45-1,1s0.45,1,1,1h1c0.55,0,1-0.45,1-1s-0.45-1-1-1H41z"/>
        <path fill="white" d="M21,29c-0.55,0-1,0.45-1,1s0.45,1,1,1h1c0.55,0,1-0.45,1-1s-0.45-1-1-1H21z"/>
        <path fill="white" d="M31,29c-0.55,0-1,0.45-1,1s0.45,1,1,1h1c0.55,0,1-0.45,1-1s-0.45-1-1-1H31z"/>
        <path fill="white" d="M16,29c-0.55,0-1,0.45-1,1s0.45,1,1,1h1c0.55,0,1-0.45,1-1s-0.45-1-1-1H16z"/>
        <path fill="white" d="M2,29H1c-0.55,0-1,0.45-1,1s0.45,1,1,1h1c0.55,0,1-0.45,1-1S2.55,29,2,29z"/>
        <path fill="white" d="M11,29c-0.55,0-1,0.45-1,1s0.45,1,1,1h1c0.55,0,1-0.45,1-1s-0.45-1-1-1H11z"/>
        <path fill="white" d="M6,29c-0.55,0-1,0.45-1,1s0.45,1,1,1h1c0.55,0,1-0.45,1-1s-0.45-1-1-1H6z"/>
        <path fill="white" d="M46,31h1c0.55,0,1-0.45,1-1s-0.45-1-1-1h-1c-0.55,0-1,0.45-1,1S45.45,31,46,31z"/>
        <path fill="white" d="M51.99,49.03l-4.82-1.29C53.72,44.33,58,37.43,58,30c0-8.1-5.08-15.57-12.63-18.58   
            c-0.51-0.21-1.09,0.04-1.3,0.56s0.04,1.09,0.56,1.3C51.43,15.99,56,22.71,56,30c0,7-4.22,13.47-10.55,16.36l1.58-5.9   
            c0.14-0.53-0.17-1.08-0.71-1.22c-0.53-0.14-1.08,0.17-1.22,0.71l-2.07,7.73c-0.02,0.06-0.01,0.12-0.01,0.18   
            c-0.01,0.05-0.01,0.1-0.01,0.16c0,0.04,0.01,0.07,0.01,0.11c0.01,0.07,0,0.14,0.03,0.21C43.2,48.74,43.58,49,44,49   
            c0.03,0,0.05-0.01,0.08-0.01l7.39,1.98c0.09,0.02,0.17,0.03,0.26,0.03c0.44,0,0.85-0.29,0.96-0.74   
            C52.84,49.73,52.52,49.18,51.99,49.03z"/>
    </g>
</svg>