<svg xmlns="http://www.w3.org/2000/svg" xmlns:xlink="http://www.w3.org/1999/xlink" version="1.1" x="0px" y="0px" viewBox="0 0 60 72.5" enable-background="new 0 0 60 58" xml:space="preserve">
    <g>
        <path fill="white" d="M0,55.02L27.65,34L0,12.98V55.02z M2,17.02L24.35,34L2,50.98V17.02z"/>
        <path fill="white" d="M32.35,34L60,55.02V12.98L32.35,34z M58,50.98L35.65,34L58,17.02V50.98z"/>
        <path fill="white" d="M30,40c-0.55,0-1,0.45-1,1v1c0,0.55,0.45,1,1,1s1-0.45,1-1v-1C31,40.45,30.55,40,30,40z"/>
        <path fill="white" d="M30,55c-0.55,0-1,0.45-1,1v1c0,0.55,0.45,1,1,1s1-0.45,1-1v-1C31,55.45,30.55,55,30,55z"/>
        <path fill="white" d="M30,50c-0.55,0-1,0.45-1,1v1c0,0.55,0.45,1,1,1s1-0.45,1-1v-1C31,50.45,30.55,50,30,50z"/>
        <path fill="white" d="M30,45c-0.55,0-1,0.45-1,1v1c0,0.55,0.45,1,1,1s1-0.45,1-1v-1C31,45.45,30.55,45,30,45z"/>
        <path fill="white" d="M30,15c-0.55,0-1,0.45-1,1v1c0,0.55,0.45,1,1,1s1-0.45,1-1v-1C31,15.45,30.55,15,30,15z"/>
        <path fill="white" d="M30,20c-0.55,0-1,0.45-1,1v1c0,0.55,0.45,1,1,1s1-0.45,1-1v-1C31,20.45,30.55,20,30,20z"/>
        <path fill="white" d="M30,10c-0.55,0-1,0.45-1,1v1c0,0.55,0.45,1,1,1s1-0.45,1-1v-1C31,10.45,30.55,10,30,10z"/>
        <path fill="white" d="M30,35c-0.55,0-1,0.45-1,1v1c0,0.55,0.45,1,1,1s1-0.45,1-1v-1C31,35.45,30.55,35,30,35z"/>
        <path fill="white" d="M30,30c-0.55,0-1,0.45-1,1v1c0,0.55,0.45,1,1,1s1-0.45,1-1v-1C31,30.45,30.55,30,30,30z"/>
        <path fill="white" d="M30,25c-0.55,0-1,0.45-1,1v1c0,0.55,0.45,1,1,1s1-0.45,1-1v-1C31,25.45,30.55,25,30,25z"/>
        <path fill="white" d="M11.97,13.93c0.51,0.2,1.09-0.04,1.3-0.56C15.99,6.57,22.71,2,30,2c7,0,13.47,4.22,16.36,10.55l-5.9-1.58   
            c-0.53-0.14-1.08,0.17-1.22,0.71s0.17,1.08,0.71,1.22l7.73,2.07c0.09,0.02,0.17,0.03,0.26,0.03c0.01,0,0.02-0.01,0.03-0.01   
            c0.01,0,0.02,0.01,0.04,0.01c0.11,0,0.22-0.02,0.33-0.05c0.43-0.15,0.68-0.57,0.66-1l1.99-7.41c0.14-0.53-0.17-1.08-0.71-1.22   
            c-0.53-0.14-1.08,0.17-1.22,0.71l-1.29,4.82C44.33,4.28,37.43,0,30,0c-8.1,0-15.57,5.08-18.58,12.63   
            C11.21,13.14,11.46,13.72,11.97,13.93z"/>
    </g>
</svg>


