<?xml version="1.0" standalone="no"?>
<!DOCTYPE svg PUBLIC "-//W3C//DTD SVG 20010904//EN"
 "http://www.w3.org/TR/2001/REC-SVG-20010904/DTD/svg10.dtd">
<svg version="1.0" xmlns="http://www.w3.org/2000/svg"
 width="900.000000pt" height="1040.000000pt" viewBox="0 0 900.000000 1040.000000"
 preserveAspectRatio="xMidYMid meet">
<metadata>
Created by potrace 1.15, written by Peter Selinger 2001-2017
</metadata>
<g transform="translate(0.000000,1040.000000) scale(0.100000,-0.100000)"
fill="red" stroke="none">
<path d="M3360 9703 c0 -3 18 -29 39 -57 102 -133 225 -366 280 -531 38 -114
62 -236 101 -505 51 -360 96 -517 211 -750 118 -236 283 -490 494 -755 48 -60
93 -116 99 -124 15 -19 -5 -8 -127 68 -403 251 -843 432 -1212 497 -123 21
-390 23 -585 4 -181 -18 -470 -16 -665 4 -348 36 -709 88 -1052 150 -103 19
-189 33 -191 32 -2 -2 50 -39 115 -81 284 -187 476 -349 868 -736 406 -400
491 -474 721 -625 287 -188 704 -386 1039 -494 39 -12 73 -25 77 -29 4 -3 -52
-14 -125 -24 -246 -34 -526 -117 -720 -213 -203 -100 -313 -201 -492 -453 -61
-85 -141 -188 -180 -229 -165 -178 -564 -431 -1064 -676 l-206 -101 180 -12
c382 -26 630 -66 1072 -172 344 -83 451 -104 643 -127 172 -19 442 -15 585 11
361 64 782 257 1174 537 68 49 125 87 126 86 1 -2 -33 -77 -75 -168 -175 -376
-308 -748 -387 -1085 -39 -166 -43 -431 -12 -690 34 -273 34 -625 1 -805 -50
-269 -135 -553 -228 -764 -25 -55 -43 -100 -41 -102 1 -2 61 63 132 144 71 81
339 356 595 612 256 256 517 524 581 595 455 512 665 876 824 1429 48 168 107
434 126 566 6 47 14 88 18 93 4 4 15 -24 24 -62 24 -101 101 -309 162 -438
141 -297 264 -461 635 -848 258 -268 454 -506 699 -849 62 -86 115 -155 118
-153 2 3 -7 63 -21 133 -30 156 -61 368 -81 566 -27 260 -29 468 -10 888 25
574 7 781 -94 1090 -107 324 -297 631 -547 886 -57 58 -104 108 -104 110 0 2
73 5 163 5 89 1 175 4 190 8 l28 6 -54 65 c-77 93 -231 237 -328 307 -155 112
-438 260 -642 337 l-58 21 98 89 c202 184 483 458 671 656 214 225 592 645
592 658 0 12 -54 93 -80 121 -32 33 -86 53 -121 46 -66 -15 -157 -123 -359
-425 -130 -196 -179 -259 -296 -390 -144 -162 -533 -514 -549 -498 -3 2 6 38
20 79 14 41 39 126 55 189 82 327 83 577 4 853 -21 75 -79 235 -89 245 -3 3
-267 -342 -298 -390 -11 -15 -22 -28 -25 -28 -4 0 -17 48 -30 107 -49 224
-155 480 -270 652 -129 194 -415 435 -837 707 -383 247 -777 478 -1080 634
-198 101 -225 113 -225 103z"/>
</g>
</svg>
