<svg xmlns="http://www.w3.org/2000/svg" xmlns:xlink="http://www.w3.org/1999/xlink" version="1.1" x="0px" y="0px" viewBox="0 0 512 640" style="enable-background:new 0 0 512 512;" xml:space="preserve">
    <g><g>
        <path d="M66,156v200c0,6.055,3.154,11.697,8.397,14.725L115,394.227V117.773l-40.603,23.502C69.153,144.303,66,149.944,66,156z"/>
            <polygon points="385,235.539 358.284,269.027 385,280.09   "/>
            <polygon points="125,233.089 125,280.804 153.46,269.019   "/>
        <path d="M174.554,193.912c-0.299-2.156,0.832-4.259,2.796-5.199c1.965-0.938,4.311-0.498,5.801,1.088l30.407,32.38l-15.939-74.758    
                c-0.437-2.051,0.451-4.162,2.225-5.279s4.056-1.021,5.717,0.259l24.962,19.213l20.831-52.371c0.757-1.903,2.599-3.246,4.646-3.246    
                c0.003,0,0.007,0,0.01,0c2.051,0,3.892,1.355,4.643,3.264l20.579,52.41l25.224-19.261c1.664-1.271,3.943-1.372,5.715-0.247    
                c1.769,1.123,2.649,3.229,2.206,5.277l-16.145,74.668l30.339-32.309c1.484-1.582,3.82-2.027,5.784-1.097    
                c1.962,0.93,3.101,3.019,2.817,5.171l-4.122,31.381l51.949-7.85V110.846l-120.499-69.57c-2.581-1.49-5.521-2.278-8.501-2.278    
                c-2.98,0-5.92,0.788-8.501,2.278L125,112v105.106l53.9,8.144L174.554,193.912z"/>
        <path d="M305.574,299.495l63.883-15.018l-21.139-8.754c-1.451-0.601-2.536-1.849-2.929-3.37s-0.047-3.139,0.934-4.367    
                l31.403-39.366l-49.752,7.519c-1.552,0.234-3.127-0.274-4.248-1.375c-1.122-1.1-1.661-2.663-1.456-4.221l2.966-22.581    
                l-32.057,34.139c-1.536,1.638-3.978,2.051-5.969,1.004c-1.989-1.044-3.038-3.287-2.563-5.483l17.085-79.02l-19.695,15.039    
                c-1.246,0.953-2.866,1.264-4.377,0.843s-2.736-1.526-3.311-2.985l-18.378-46.722l-18.607,46.74    
                c-0.58,1.457-1.811,2.558-3.323,2.973c-1.513,0.415-3.132,0.096-4.375-0.861l-19.429-14.973l16.84,78.98    
                c0.468,2.194-0.584,4.433-2.572,5.473c-1.99,1.041-4.427,0.627-5.963-1.008l-31.925-33.998l3.107,22.405    
                c0.217,1.563-0.316,3.135-1.438,4.244c-1.122,1.108-2.698,1.623-4.261,1.387l-49.815-7.527L165.411,268    
                c0.974,1.229,1.314,2.844,0.92,4.361c-0.394,1.518-1.478,2.763-2.926,3.362l-21.12,8.746l64.137,15.025    
                c1.875,0.439,3.332,1.917,3.744,3.8c0.412,1.881-0.294,3.834-1.814,5.017c-3.701,2.879-7.415,5.896-11.006,8.809    
                c-1.154,0.937-2.32,1.889-3.496,2.839c15.968,4.198,32.101,6.783,48.088,7.676c1.387,0.077,2.68,0.752,3.568,1.822    
                c0.888,1.068,1.291,2.506,1.112,3.885L238.501,396h33.749l-7.629-62.371c-0.169-1.379,0.243-2.861,1.139-3.924    
                c0.895-1.063,2.191-1.705,3.579-1.773c17.245-0.846,34.521-3.398,51.496-7.602l-16.98-11.869c-1.616-1.13-2.418-3.104-2.046-5.041    
                C302.18,301.483,303.655,299.946,305.574,299.495z"/>
        <path d="M385,291.096l-66.251,15.576l16.608,11.611c1.579,1.103,2.384,3.019,2.068,4.918c-0.315,1.9-1.693,3.457-3.544,3.992    
                c-19.248,5.565-38.964,9.077-58.688,10.434l7.669,62.623c0.174,1.422-0.27,2.896-1.219,3.969S279.332,406,277.9,406h-45.09    
                c-1.438,0-2.807-0.714-3.756-1.794c-0.95-1.081-1.388-2.612-1.203-4.039l8.164-62.931c-18.131-1.418-36.392-4.894-54.359-10.352    
                c-1.788-0.543-3.123-2.037-3.463-3.874c-0.34-1.837,0.372-3.71,1.847-4.856c3.701-2.879,7.414-5.892,11.005-8.805    
                c1.008-0.818,2.025-1.644,3.05-2.473L125,290.691V400l122.499,70.725c5.164,2.981,11.842,2.98,17.002,0l120.624-69.643    
                C385.048,400.733,385,400.373,385,400V291.096z"/>
        <path d="M437.602,141.275L395,116.619v278.762l42.602-24.656c5.244-3.028,8.398-8.67,8.398-14.725V156    
                C446,149.945,442.846,144.303,437.602,141.275z"/>
    </g></g>
</svg>