<svg xmlns="http://www.w3.org/2000/svg" xmlns:xlink="http://www.w3.org/1999/xlink" version="1.1" x="0px" y="0px" viewBox="0 0 512 640" style="enable-background:new 0 0 512 512; fill: #000000;" xml:space="preserve">
    <path d="M256,6C117.9,6,6,117.9,6,256s111.9,250,250,250s250-111.9,250-250S394.1,6,256,6z M292.1,156.8h2v43.9h-2V156.8z   
             M260.2,125h2v43.9h-2V125z M228.4,156.8h2v43.9h-2V156.8z M341.5,293.7l-47.3,5.9l20.8,44.3l-0.2-0.1l0.1,0.2l-45-13.3l0.7,44.3  
             l-0.6-0.2v0.2l-48.3-39.3c-1.3-1.1-2.8-2.6-4.9-4.5l-17.3,26.1l-0.1-0.2l-0.1,0.2l-19.7-46.1c-2.5-5.8-10.7-24.1-3.8-41.8  
             c5.2-13.7,17.3-20.5,24.8-24.2c0.1,0,0.1-0.1,0.2-0.2l-30.4-25.3l1.3-1.5l30.2,25.1l0.1-0.1c-0.1-0.1-0.1-0.2-0.2-0.3  
             c0.2,0.1,0.2,0.1,0.4,0.2c0.1,0,0.2-0.1,0.3-0.2c2.6-7.5,7.7-21.7,21.7-29.2c16.7-8.9,36-3.1,42-1.3l48.3,13.9l-0.2,0.2l0.2,0.1  
             l-23.4,19.8c2,1.6,3.6,3,4.8,4.1l45.8,42.8L341.5,293.7z"/>
</svg>