<svg xmlns="http://www.w3.org/2000/svg" xmlns:xlink="http://www.w3.org/1999/xlink" version="1.1" x="0px" y="0px" viewBox="0 0 512 640" enable-background="new 0 0 512 512" style="background-color: black;" xml:space="preserve">
    <path 
        fill="magenta"
        d="M256,2C115.7,2,2,115.7,2,256c0,140.3,113.7,254,254,254c140.3,0,254-113.7,254-254C510,115.7,396.3,2,256,2z M154.4,256
           c0-56.1,45.5-101.6,101.6-101.6v203.2C199.9,357.6,154.4,312.1,154.4,256z M399.7,399.7c-39.6,39.6-91.5,59.4-143.5,59.4V357.6  
           c56-0.1,101.4-45.5,101.4-101.6c0-56.1-45.4-101.5-101.4-101.6V52.9c52,0,103.9,19.8,143.5,59.4  C478.9,191.5,478.9,320.4,399.7,399.7z"/>
</svg>